<svg width="24" height="24" viewBox="0 0 24 24" fill="none" xmlns="http://www.w3.org/2000/svg">
<path d="M15.0587 19.5226C15.3396 19.2413 15.4974 18.8601 15.4974 18.4626C15.4974 18.0651 15.3396 17.6838 15.0587 17.4026L9.61868 11.9626L15.0587 6.52258C15.3236 6.23823 15.4679 5.86214 15.461 5.47354C15.4542 5.08494 15.2968 4.71417 15.0219 4.43934C14.7471 4.16452 14.3763 4.00709 13.9877 4.00023C13.5991 3.99338 13.223 4.13763 12.9387 4.40259L6.43868 10.9026C6.15778 11.1838 6 11.5651 6 11.9626C6 12.3601 6.15778 12.7413 6.43868 13.0226L12.9387 19.5226C13.2199 19.8035 13.6012 19.9613 13.9987 19.9613C14.3962 19.9613 14.7774 19.8035 15.0587 19.5226Z" fill="#121212"/>
</svg>
