<svg width="24" height="24" viewBox="0 0 24 24" fill="none" xmlns="http://www.w3.org/2000/svg">
<path d="M7.94132 4.43868C7.66042 4.71993 7.50264 5.10118 7.50264 5.49868C7.50264 5.89618 7.66042 6.27743 7.94132 6.55868L13.3813 11.9987L7.94132 17.4387C7.67636 17.723 7.53211 18.0991 7.53897 18.4877C7.54583 18.8763 7.70325 19.2471 7.97808 19.5219C8.2529 19.7967 8.62367 19.9542 9.01227 19.961C9.40088 19.9679 9.77697 19.8236 10.0613 19.5587L16.5613 13.0587C16.8422 12.7774 17 12.3962 17 11.9987C17 11.6012 16.8422 11.2199 16.5613 10.9387L10.0613 4.43868C9.78007 4.15778 9.39882 4 9.00132 4C8.60382 4 8.22257 4.15778 7.94132 4.43868Z" fill="#121212"/>
</svg>
