<svg width="24" height="24" viewBox="0 0 24 24" fill="none" xmlns="http://www.w3.org/2000/svg">
<path d="M19.5613 7.94132C19.2801 7.66042 18.8988 7.50264 18.5013 7.50264C18.1038 7.50264 17.7226 7.66042 17.4413 7.94132L12.0013 13.3813L6.56132 7.94132C6.27697 7.67636 5.90088 7.53211 5.51228 7.53897C5.12367 7.54583 4.7529 7.70325 4.47808 7.97808C4.20325 8.2529 4.04583 8.62367 4.03897 9.01227C4.03211 9.40088 4.17636 9.77697 4.44132 10.0613L10.9413 16.5613C11.2226 16.8422 11.6038 17 12.0013 17C12.3988 17 12.7801 16.8422 13.0613 16.5613L19.5613 10.0613C19.8422 9.78007 20 9.39882 20 9.00132C20 8.60382 19.8422 8.22257 19.5613 7.94132Z" fill="#121212"/>
</svg>
