<svg width="24" height="24" viewBox="0 0 24 24" fill="none" xmlns="http://www.w3.org/2000/svg">
<path d="M6.9492 8.064C7.03268 8.14774 7.09883 8.2471 7.14389 8.35642C7.18895 8.46574 7.21203 8.58286 7.21181 8.7011C7.21159 8.81934 7.18807 8.93637 7.1426 9.04552C7.09712 9.15466 7.03059 9.25378 6.9468 9.3372L5.4792 10.8H9.9C10.1387 10.8 10.3676 10.8948 10.5364 11.0636C10.7052 11.2324 10.8 11.4613 10.8 11.7C10.8 11.9387 10.7052 12.1676 10.5364 12.3364C10.3676 12.5052 10.1387 12.6 9.9 12.6H5.472L6.936 14.064C7.02442 14.1464 7.09535 14.2458 7.14454 14.3562C7.19373 14.4666 7.22018 14.5857 7.22231 14.7066C7.22444 14.8274 7.20221 14.9475 7.15695 15.0595C7.11168 15.1716 7.04431 15.2734 6.95885 15.3588C6.87338 15.4443 6.77158 15.5117 6.65952 15.5569C6.54745 15.6022 6.42742 15.6244 6.30657 15.6223C6.18573 15.6202 6.06655 15.5937 5.95615 15.5445C5.84576 15.4953 5.74639 15.4244 5.664 15.336L2.664 12.336C2.58037 12.2524 2.51402 12.1532 2.46876 12.0439C2.42349 11.9347 2.40019 11.8176 2.40019 11.6994C2.40019 11.5812 2.42349 11.4641 2.46876 11.3549C2.51402 11.2456 2.58037 11.1464 2.664 11.0628L5.676 8.0628C5.75974 7.97932 5.8591 7.91317 5.96842 7.86811C6.07774 7.82305 6.19486 7.79997 6.3131 7.80019C6.43134 7.80041 6.54837 7.82393 6.65752 7.8694C6.76666 7.91488 6.86578 7.98141 6.9492 8.0652M17.064 8.0652C17.2328 7.89666 17.4615 7.80199 17.7 7.80199C17.9385 7.80199 18.1672 7.89666 18.336 8.0652L21.336 11.0652C21.5045 11.2339 21.5992 11.4627 21.5992 11.7012C21.5992 11.9397 21.5045 12.1684 21.336 12.3372L18.336 15.3372C18.2536 15.4256 18.1542 15.4965 18.0438 15.5457C17.9334 15.5949 17.8143 15.6214 17.6934 15.6235C17.5726 15.6256 17.4525 15.6034 17.3405 15.5581C17.2284 15.5129 17.1266 15.4455 17.0412 15.36C16.9557 15.2746 16.8883 15.1728 16.8431 15.0607C16.7978 14.9487 16.7756 14.8286 16.7777 14.7078C16.7798 14.5869 16.8063 14.4678 16.8555 14.3574C16.9047 14.247 16.9756 14.1476 17.064 14.0652L18.528 12.6012H14.1C13.8613 12.6012 13.6324 12.5064 13.4636 12.3376C13.2948 12.1688 13.2 11.9399 13.2 11.7012C13.2 11.4625 13.2948 11.2336 13.4636 11.0648C13.6324 10.896 13.8613 10.8012 14.1 10.8012H18.528L17.064 9.3372C16.8955 9.16845 16.8008 8.9397 16.8008 8.7012C16.8008 8.4627 16.8955 8.23395 17.064 8.0652Z" fill="#121212"/>
</svg>
