<svg width="30" height="30" viewBox="0 0 30 30" fill="none" xmlns="http://www.w3.org/2000/svg">
<path d="M14.8779 2.51971C14.9536 2.47751 15.0464 2.47751 15.1221 2.51971L26.1221 8.6535C26.201 8.69765 26.2499 8.78084 26.25 8.87128V21.1242C26.25 21.2148 26.2012 21.2988 26.1221 21.343L15.1221 27.4767C15.0464 27.5189 14.9536 27.5189 14.8779 27.4767L3.87793 21.343C3.79882 21.2988 3.75 21.2148 3.75 21.1242V8.87128C3.7501 8.78087 3.79905 8.69766 3.87793 8.6535L14.8779 2.51971ZM14.9238 17.9562C14.5373 17.9563 14.2071 18.0895 13.9326 18.3547C13.6619 18.62 13.5284 18.9384 13.5322 19.3098C13.5284 19.6848 13.662 20.0066 13.9326 20.2756C14.2071 20.5407 14.5373 20.6739 14.9238 20.674C15.1713 20.674 15.3996 20.6126 15.6084 20.4914C15.8172 20.3663 15.9857 20.2019 16.1133 19.9973C16.2447 19.7889 16.3125 19.5597 16.3164 19.3098C16.3125 18.9384 16.171 18.62 15.8926 18.3547C15.6142 18.0894 15.2912 17.9562 14.9238 17.9562ZM15.1621 8.72479C14.4622 8.72479 13.8222 8.84768 13.2422 9.09393C12.6622 9.33645 12.1957 9.70596 11.8438 10.2023C11.4919 10.6949 11.3065 11.3205 11.2871 12.0783H13.6543C13.6659 11.7678 13.7428 11.5083 13.8857 11.3C14.0287 11.0879 14.2124 10.9286 14.4365 10.8224C14.6608 10.7126 14.899 10.6574 15.1504 10.6574C15.4095 10.6574 15.6457 10.7105 15.8584 10.8166C16.0749 10.9227 16.2464 11.0747 16.374 11.2717C16.5016 11.4687 16.5654 11.6977 16.5654 11.9592C16.5654 12.2055 16.5096 12.4292 16.3975 12.6301C16.2853 12.8271 16.1347 13.0072 15.9453 13.1701C15.7559 13.333 15.5414 13.4903 15.3018 13.6418C14.9808 13.8388 14.7057 14.0585 14.4775 14.301C14.2494 14.5435 14.075 14.862 13.9551 15.256C13.8391 15.6501 13.7793 16.1789 13.7754 16.842V17.0353H15.9746V16.842C15.9785 16.4708 16.0264 16.1583 16.1191 15.9045C16.2158 15.6506 16.3613 15.4269 16.5547 15.2336C16.7519 15.0404 17.0032 14.855 17.3086 14.6769C17.6721 14.4647 17.9871 14.2275 18.2539 13.966C18.5207 13.7008 18.7281 13.3978 18.875 13.0568C19.0258 12.712 19.1006 12.3175 19.1006 11.8742C19.1006 11.211 18.9331 10.6439 18.5967 10.174C18.2602 9.7041 17.7958 9.34612 17.2041 9.09979C16.6124 8.84968 15.9317 8.7248 15.1621 8.72479Z" fill="#FF0E6E" fill-opacity="0.35"/>
</svg>
