<svg width="30" height="30" viewBox="0 0 30 30" fill="none" xmlns="http://www.w3.org/2000/svg">
<g opacity="0.35" clip-path="url(#clip0_259_950)">
<mask id="mask0_259_950" style="mask-type:luminance" maskUnits="userSpaceOnUse" x="2" y="2" width="26" height="26">
<path d="M27.5 2.5H2.5V27.5H27.5V2.5Z" fill="white"/>
</mask>
<g mask="url(#mask0_259_950)">
<mask id="mask1_259_950" style="mask-type:luminance" maskUnits="userSpaceOnUse" x="2" y="2" width="26" height="26">
<path d="M27.5 2.5H2.5V27.5H27.5V2.5Z" fill="white"/>
</mask>
<g mask="url(#mask1_259_950)">
<path d="M15 2.5C21.9035 2.5 27.5 8.09644 27.5 15C27.5 21.9035 21.9035 27.5 15 27.5C8.09644 27.5 2.5 21.9035 2.5 15C2.5 8.09644 8.09644 2.5 15 2.5ZM15 5C9.47715 5 5 9.47715 5 15C5 20.5229 9.47715 25 15 25C20.5229 25 25 20.5229 25 15C25 9.47715 20.5229 5 15 5ZM15 8.75C18.4517 8.75 21.25 11.5482 21.25 15C21.25 18.4517 18.4517 21.25 15 21.25C11.5482 21.25 8.75 18.4517 8.75 15C8.75 11.5482 11.5482 8.75 15 8.75ZM15 11.25C12.9289 11.25 11.25 12.9289 11.25 15C11.25 17.0711 12.9289 18.75 15 18.75C17.0711 18.75 18.75 17.0711 18.75 15C18.75 12.9289 17.0711 11.25 15 11.25Z" fill="#2C7CF2"/>
</g>
<mask id="mask2_259_950" style="mask-type:alpha" maskUnits="userSpaceOnUse" x="2" y="2" width="26" height="26">
<path d="M15 27.5C21.9036 27.5 27.5 21.9036 27.5 15C27.5 8.09644 21.9036 2.5 15 2.5C8.09644 2.5 2.5 8.09644 2.5 15C2.5 21.9036 8.09644 27.5 15 27.5Z" fill="#D9D9D9"/>
</mask>
<g mask="url(#mask2_259_950)">
<path d="M17.5 27.5H12.5V18.75H17.5V27.5ZM11.25 17.5H2.5V12.5H11.25V17.5ZM27.5 17.5H18.75V12.5H27.5V17.5ZM17.5 11.25H12.5V2.5H17.5V11.25Z" fill="#2C7CF2"/>
</g>
</g>
</g>
<defs>
<clipPath id="clip0_259_950">
<rect width="25" height="25" fill="white" transform="translate(2.5 2.5)"/>
</clipPath>
</defs>
</svg>
