<svg width="50" height="50" viewBox="0 0 50 50" fill="none" xmlns="http://www.w3.org/2000/svg">
<path d="M22.9167 4.16666V8.47916C19.25 8.94414 15.8419 10.6148 13.2284 13.2283C10.6149 15.8418 8.94423 19.2499 8.47925 22.9167H4.16675V27.0833H8.47925C8.94423 30.75 10.6149 34.1582 13.2284 36.7717C15.8419 39.3852 19.25 41.0558 22.9167 41.5208V45.8333H27.0834V41.5208C30.7501 41.0558 34.1583 39.3852 36.7718 36.7717C39.3853 34.1582 41.0559 30.75 41.5209 27.0833H45.8334V22.9167H41.5209C41.0559 19.2499 39.3853 15.8418 36.7718 13.2283C34.1583 10.6148 30.7501 8.94414 27.0834 8.47916V4.16666M22.9167 12.6667V16.6667H27.0834V12.6875C32.2917 13.5417 36.4584 17.7083 37.3334 22.9167H33.3334V27.0833H37.3126C36.4584 32.2917 32.2917 36.4583 27.0834 37.3333V33.3333H22.9167V37.3125C17.7084 36.4583 13.5417 32.2917 12.6667 27.0833H16.6667V22.9167H12.6876C13.5417 17.7083 17.7084 13.5417 22.9167 12.6667Z" fill="#353429"/>
</svg>
